<?xml version="1.0" standalone="no"?>
<!DOCTYPE svg PUBLIC "-//W3C//DTD SVG 20010904//EN"
 "http://www.w3.org/TR/2001/REC-SVG-20010904/DTD/svg10.dtd">
<svg version="1.0" xmlns="http://www.w3.org/2000/svg"
 width="700.000000pt" height="700.000000pt" viewBox="0 0 700.000000 700.000000"
 preserveAspectRatio="xMidYMid meet">
<metadata>
Created by potrace 1.14, written by Peter Selinger 2001-2017
</metadata>
<g transform="translate(0.000000,700.000000) scale(0.100000,-0.100000)"
fill="#000000" stroke="none">
<path d="M3377 6344 c-1 -1 -55 -5 -119 -8 -64 -4 -127 -9 -140 -11 -13 -2
-56 -6 -96 -10 -40 -3 -78 -8 -85 -10 -7 -2 -31 -6 -55 -9 -24 -3 -82 -13
-130 -22 -113 -21 -106 -20 -187 -39 -38 -9 -78 -18 -88 -20 -10 -2 -73 -23
-140 -46 -347 -118 -659 -311 -918 -569 -201 -200 -333 -381 -460 -628 -56
-110 -135 -304 -154 -382 -2 -8 -16 -60 -30 -115 -26 -100 -69 -320 -79 -405
-3 -25 -9 -72 -12 -105 -4 -33 -8 -63 -10 -66 -13 -24 -20 -455 -10 -634 7
-118 9 -147 20 -235 3 -25 8 -65 11 -90 3 -25 12 -83 20 -130 57 -330 122
-538 246 -785 157 -313 405 -613 684 -826 59 -46 217 -151 265 -178 141 -78
416 -197 500 -216 8 -2 67 -17 130 -34 63 -16 133 -32 155 -35 22 -4 76 -13
120 -21 44 -8 98 -17 120 -19 164 -21 183 -23 330 -32 189 -11 494 -6 620 11
17 2 57 7 90 10 243 25 520 85 723 156 370 131 745 384 996 675 102 118 115
135 201 265 183 274 316 607 371 924 2 17 7 37 9 45 2 8 6 33 9 55 4 22 8 51
11 65 6 30 13 84 21 165 3 33 8 62 9 65 6 10 18 329 18 445 -2 211 -22 438
-59 645 -8 47 -17 94 -18 105 -31 185 -116 450 -199 625 -125 261 -273 468
-481 675 -193 192 -388 333 -623 450 -176 87 -409 169 -563 199 -14 2 -58 12
-98 20 -40 9 -91 18 -115 21 -23 3 -49 7 -57 10 -8 2 -37 7 -65 10 -27 3 -68
7 -90 10 -97 12 -126 15 -230 21 -95 6 -364 11 -368 8z m398 -448 c171 -15
284 -31 445 -61 550 -102 1010 -404 1318 -865 49 -74 149 -260 170 -316 6 -16
22 -60 36 -99 15 -38 38 -114 51 -167 141 -552 146 -1166 13 -1728 -67 -283
-202 -559 -384 -787 -84 -104 -281 -292 -370 -353 -235 -160 -418 -248 -654
-313 -73 -20 -286 -63 -380 -76 -372 -52 -750 -47 -1125 14 -100 17 -101 17
-200 39 -38 9 -80 19 -93 21 -49 11 -210 69 -291 105 -450 198 -830 585 -1016
1035 -56 134 -107 304 -130 430 -16 90 -34 206 -40 250 -3 28 -8 61 -10 75 -9
62 -18 238 -19 380 -1 233 17 466 49 631 2 9 6 32 9 50 76 450 254 807 556
1110 288 291 593 458 1000 548 132 30 160 34 395 66 17 2 77 7 135 11 58 3
106 7 107 8 6 5 365 -2 428 -8z"/>
<path d="M2245 4426 c-85 -40 -128 -108 -127 -202 1 -103 0 -102 402 -435 69
-57 127 -106 130 -109 3 -3 30 -25 60 -50 96 -79 102 -85 110 -106 5 -12 6
-31 3 -43 -3 -12 -83 -85 -177 -163 -94 -79 -173 -145 -176 -148 -4 -5 -50
-44 -209 -175 -75 -61 -104 -93 -122 -127 -75 -148 45 -327 210 -313 76 7 88
15 336 223 11 9 47 40 80 67 33 28 70 59 83 70 14 11 30 25 36 30 6 6 49 41
96 80 147 120 201 181 238 271 77 183 52 371 -70 526 -16 21 -147 135 -291
255 -144 120 -264 220 -267 223 -21 22 -139 114 -163 127 -51 26 -125 26 -182
-1z"/>
<path d="M3565 2972 c-54 -22 -90 -56 -114 -108 -57 -120 9 -268 136 -303 19
-5 270 -10 576 -10 518 0 544 1 587 20 87 39 132 105 132 198 1 95 -65 187
-152 211 -21 6 -256 10 -580 9 -483 0 -550 -2 -585 -17z"/>
</g>
</svg>
